<svg width="40" height="41" viewBox="0 0 40 41" fill="none" xmlns="http://www.w3.org/2000/svg">
<path d="M19.9063 12.5366C18.8119 12.5366 17.7283 12.7522 16.7172 13.171C15.7062 13.5897 14.7875 14.2036 14.0137 14.9774C12.4509 16.5402 11.5729 18.6598 11.5729 20.87C11.5729 23.0801 12.4509 25.1997 14.0137 26.7625C14.7875 27.5363 15.7062 28.1502 16.7172 28.569C17.7283 28.9877 18.8119 29.2033 19.9063 29.2033C22.1164 29.2033 24.236 28.3253 25.7988 26.7625C27.3616 25.1997 28.2396 23.0801 28.2396 20.87C28.2396 19.7756 28.024 18.692 27.6053 17.6809C27.1865 16.6699 26.5726 15.7512 25.7988 14.9774C25.025 14.2036 24.1063 13.5897 23.0953 13.171C22.0842 12.7522 21.0006 12.5366 19.9063 12.5366ZM23.4063 24.37L19.0729 21.7033V16.7033H20.3229V21.0366L24.0729 23.2866L23.4063 24.37Z" fill="#9CD6E1"/>
<circle cx="20" cy="20.481" r="19.5" stroke="#9CD6E1"/>
</svg>
