<svg width="40" height="40" fill="none" xmlns="http://www.w3.org/2000/svg"><path d="M18.703 22.427a9.549 9.549 0 0 0 3.469 2.246l1.767-1.406a.314.314 0 0 1 .357 0l3.281 2.114a.937.937 0 0 1 .155 1.49l-1.538 1.52a1.875 1.875 0 0 1-1.701.501 16.45 16.45 0 0 1-8.04-4.22 15.841 15.841 0 0 1-4.346-7.89 1.771 1.771 0 0 1 .515-1.664l1.594-1.537a.937.937 0 0 1 1.463.15l2.184 3.24a.295.295 0 0 1 0 .351l-1.439 1.73a9.258 9.258 0 0 0 2.279 3.375Z" fill="#9CD6E1"/><circle cx="20" cy="20" r="19.5" stroke="#9CD6E1"/></svg>